<?xml version="1.0" encoding="UTF-8" standalone="no"?>
<!-- Created with Inkscape (http://www.inkscape.org/) -->

<svg
   xmlns:dc="http://purl.org/dc/elements/1.1/"
   xmlns:cc="http://creativecommons.org/ns#"
   xmlns:rdf="http://www.w3.org/1999/02/22-rdf-syntax-ns#"
   xmlns:svg="http://www.w3.org/2000/svg"
   xmlns="http://www.w3.org/2000/svg"
   xmlns:sodipodi="http://sodipodi.sourceforge.net/DTD/sodipodi-0.dtd"
   xmlns:inkscape="http://www.inkscape.org/namespaces/inkscape"
   width="108"
   height="108"
   id="svg2"
   version="1.1"
   inkscape:version="0.48.4 r9939"
   sodipodi:docname="ic_launcher.svg">
  <defs
     id="defs4" />
  <sodipodi:namedview
     id="base"
     pagecolor="#ffffff"
     bordercolor="#666666"
     borderopacity="1.0"
     inkscape:pageopacity="0.0"
     inkscape:pageshadow="2"
     inkscape:zoom="6.5416667"
     inkscape:cx="42.107512"
     inkscape:cy="53.999999"
     inkscape:document-units="px"
     inkscape:current-layer="layer5"
     showgrid="true"
     inkscape:snap-bbox="true"
     inkscape:window-width="1043"
     inkscape:window-height="849"
     inkscape:window-x="115"
     inkscape:window-y="144"
     inkscape:window-maximized="0"
     showguides="true"
     inkscape:guide-bbox="true">
    <inkscape:grid
       type="xygrid"
       id="grid2985"
       empspacing="4"
       visible="true"
       enabled="true"
       snapvisiblegridlinesonly="true"
       originx="-2.7755576e-017px" />
  </sodipodi:namedview>
  <metadata
     id="metadata7">
    <rdf:RDF>
      <cc:Work
         rdf:about="">
        <dc:format>image/svg+xml</dc:format>
        <dc:type
           rdf:resource="http://purl.org/dc/dcmitype/StillImage" />
        <dc:title />
      </cc:Work>
    </rdf:RDF>
  </metadata>
  <g
     inkscape:label="vp"
     inkscape:groupmode="layer"
     id="layer1"
     transform="translate(0,-944.36218)"
     style="display:none"
     sodipodi:insensitive="true">
    <rect
       style="fill:#000000;fill-opacity:0.14705882;fill-rule:nonzero;stroke:none"
       id="rect2987"
       width="72"
       height="72"
       x="18"
       y="962.36218" />
  </g>
  <g
     inkscape:groupmode="layer"
     id="layer5"
     inkscape:label="center_shape"
     style="display:inline">
    <path
       style="fill:#0097a7;fill-opacity:1;fill-rule:nonzero;stroke:none"
       d="m 54,28.320006 c -6.747705,0 -13.495411,0.301675 -14.5,0.875 -2.00918,1.146651 -14.500001,22.519197 -14.5,24.8125 0,2.293302 12.490821,23.665849 14.5,24.8125 2.009179,1.146651 26.990822,1.14665 29,0 2.00918,-1.146651 14.500001,-22.519197 14.5,-24.8125 0,-2.293302 -12.490821,-23.665849 -14.5,-24.8125 -1.004589,-0.573326 -7.752295,-0.875 -14.5,-0.875 z m -14.21875,19.28125 3.875,0 2.34375,8.75 2.28125,-8.75 3.90625,0 0,12.8125 -2.40625,0 0,-10.09375 -2.5625,10.09375 -2.46875,0 -2.5625,-10.09375 0,10.09375 -2.40625,0 0,-12.8125 z m 25.84375,0 2.59375,0 0,12.8125 -2.59375,0 0,-12.8125 z m -10.8125,0.09375 2.59375,0 0,10.5625 6.4375,0 0,2.15625 -9.03125,0 0,-12.71875 z"
       id="path3838"
       inkscape:connector-curvature="0" />
  </g>
  <g
     inkscape:groupmode="layer"
     id="layer2"
     inkscape:label="center_label"
     style="display:inline">
    <g
       transform="matrix(0.82857145,0,0,0.82857145,1.3630567,8.9807198)"
       style="font-size:12px;font-style:normal;font-variant:normal;font-weight:bold;font-stretch:normal;line-height:125%;letter-spacing:0px;word-spacing:0px;fill:#ffffff;fill-opacity:1;stroke:none;font-family:Simplified Arabic;-inkscape-font-specification:Simplified Arabic Bold"
       id="flowRoot3001" />
  </g>
</svg>
