<?xml version="1.0" encoding="UTF-8" standalone="no"?>
<!-- Created with Inkscape (http://www.inkscape.org/) -->

<svg
   xmlns:dc="http://purl.org/dc/elements/1.1/"
   xmlns:cc="http://creativecommons.org/ns#"
   xmlns:rdf="http://www.w3.org/1999/02/22-rdf-syntax-ns#"
   xmlns:svg="http://www.w3.org/2000/svg"
   xmlns="http://www.w3.org/2000/svg"
   xmlns:sodipodi="http://sodipodi.sourceforge.net/DTD/sodipodi-0.dtd"
   xmlns:inkscape="http://www.inkscape.org/namespaces/inkscape"
   width="24"
   height="24"
   id="svg2"
   version="1.1"
   inkscape:version="0.48.4 r9939"
   sodipodi:docname="ic_recycler_raw.svg">
  <defs
     id="defs4" />
  <sodipodi:namedview
     id="base"
     pagecolor="#ffffff"
     bordercolor="#666666"
     borderopacity="1.0"
     inkscape:pageopacity="0.0"
     inkscape:pageshadow="2"
     inkscape:zoom="32.958333"
     inkscape:cx="10.996627"
     inkscape:cy="12.15183"
     inkscape:document-units="px"
     inkscape:current-layer="layer1"
     showgrid="true"
     inkscape:window-width="929"
     inkscape:window-height="856"
     inkscape:window-x="75"
     inkscape:window-y="94"
     inkscape:window-maximized="0"
     inkscape:snap-bbox="true">
    <inkscape:grid
       type="xygrid"
       id="grid2985"
       empspacing="4"
       visible="true"
       enabled="true"
       snapvisiblegridlinesonly="true"
       originx="-2.7755576e-017px" />
  </sodipodi:namedview>
  <metadata
     id="metadata7">
    <rdf:RDF>
      <cc:Work
         rdf:about="">
        <dc:format>image/svg+xml</dc:format>
        <dc:type
           rdf:resource="http://purl.org/dc/dcmitype/StillImage" />
        <dc:title></dc:title>
      </cc:Work>
    </rdf:RDF>
  </metadata>
  <g
     inkscape:label="bg"
     inkscape:groupmode="layer"
     id="layer1"
     transform="translate(0,-1028.3622)"
     sodipodi:insensitive="true"
     style="display:none">
    <rect
       style="fill:#000000;fill-opacity:0.24019608;fill-rule:nonzero;stroke:none"
       id="rect2987"
       width="20"
       height="20"
       x="2"
       y="2"
       transform="translate(0,1028.3622)"
       rx="2"
       ry="2" />
  </g>
  <g
     inkscape:groupmode="layer"
     id="layer4"
     inkscape:label="start_top_rec"
     style="display:inline">
    <path
       style="fill:#000000;fill-opacity:1;fill-rule:nonzero;stroke:none"
       d="M 4,4 7,4 C 7.554,4 8,4.446 8,5 L 8,7 C 8,7.554 7.554,8 7,8 L 4,8 C 3.446,8 3,7.554 3,7 L 3,5 C 3,4.446 3.446,4 4,4 z"
       id="rect3055" />
  </g>
  <g
     style="display:inline"
     inkscape:label="end_top_rec"
     id="g3802"
     inkscape:groupmode="layer">
    <path
       style="fill:#000000;fill-opacity:1;fill-rule:nonzero;stroke:none"
       d="m 11,4 9,0 c 0.554,0 1,0.446 1,1 l 0,2 c 0,0.554 -0.446,1 -1,1 L 11,8 C 10.446,8 10,7.554 10,7 l 0,-2 c 0,-0.554 0.446,-1 1,-1 z"
       id="rect3082" />
  </g>
  <g
     inkscape:label="start_middle_rec"
     id="g3788"
     inkscape:groupmode="layer"
     style="display:inline">
    <path
       style="fill:#000000;fill-opacity:1;fill-rule:nonzero;stroke:none;display:inline"
       d="m 4,10 3,0 c 0.554,0 1,0.446 1,1 l 0,2 c 0,0.554 -0.446,1 -1,1 L 4,14 C 3.446,14 3,13.554 3,13 l 0,-2 c 0,-0.554 0.446,-1 1,-1 z"
       id="rect3055-7" />
  </g>
  <g
     style="display:inline"
     inkscape:groupmode="layer"
     id="g3808"
     inkscape:label="end_middle_rec">
    <path
       style="fill:#000000;fill-opacity:1;fill-rule:nonzero;stroke:none;display:inline"
       d="m 11,10 9,0 c 0.554,0 1,0.446 1,1 l 0,2 c 0,0.554 -0.446,1 -1,1 l -9,0 c -0.554,0 -1,-0.446 -1,-1 l 0,-2 c 0,-0.554 0.446,-1 1,-1 z"
       id="rect3082-0" />
  </g>
  <g
     inkscape:groupmode="layer"
     id="g3792"
     inkscape:label="start_bottom_rec"
     style="display:inline">
    <path
       style="fill:#000000;fill-opacity:1;fill-rule:nonzero;stroke:none;display:inline"
       d="m 4,16 3,0 c 0.554,0 1,0.446 1,1 l 0,2 c 0,0.554 -0.446,1 -1,1 L 4,20 C 3.446,20 3,19.554 3,19 l 0,-2 c 0,-0.554 0.446,-1 1,-1 z"
       id="rect3055-4" />
  </g>
  <g
     style="display:inline"
     inkscape:label="end_bottom_rec"
     id="g3814"
     inkscape:groupmode="layer">
    <path
       style="fill:#000000;fill-opacity:1;fill-rule:nonzero;stroke:none;display:inline"
       d="m 11,16 9,0 c 0.554,0 1,0.446 1,1 l 0,2 c 0,0.554 -0.446,1 -1,1 l -9,0 c -0.554,0 -1,-0.446 -1,-1 l 0,-2 c 0,-0.554 0.446,-1 1,-1 z"
       id="rect3082-9" />
  </g>
</svg>
